# xmcd
# Copyright (C) 1995-1998 Ti Kan
#
# Track frame offsets:
#       150
#       12332
#       31120
#       51357
#       62395
#       81857
#       108657
#       127307
#       142007
#       158720
#       171082
#
# Disc length: 2703 seconds
#
# Revision: 0
# Processed by: cddbd v1.4b42PL1 Copyright (c) Steve Scherf et al.
# Submitted via: CD-Transfer v1.0
#
DISCID=930a8d0b
DTITLE=Starfish - Slamming The Door
DYEAR=1997
DGENRE=
TTITLE0=Overture
TTITLE1=Three Young Ladies
TTITLE2=Doomsday
TTITLE3=A Woman'S Gift
TTITLE4=Man In The Horn
TTITLE5=Black Mail Box
TTITLE6=Slamming The Door
TTITLE7=Don'T Stay Away
TTITLE8=Kiss The Pope
TTITLE9=Guess My Sign
TTITLE10=(If You Ever Say) Goodby
EXTD=
EXTT0=
EXTT1=
EXTT2=
EXTT3=
EXTT4=
EXTT5=
EXTT6=
EXTT7=
EXTT8=
EXTT9=
EXTT10=
PLAYORDER=
